<?xml version="1.0" encoding="utf-8"?>
<!-- Generator: Adobe Illustrator 27.1.1, SVG Export Plug-In . SVG Version: 6.00 Build 0)  -->
<svg version="1.1" id="Layer_1" xmlns="http://www.w3.org/2000/svg" xmlns:xlink="http://www.w3.org/1999/xlink" x="0px" y="0px"
	 width="500px" height="500px" viewBox="0 0 500 500" style="enable-background:new 0 0 500 500;" xml:space="preserve">
<style type="text/css">
	.st0{fill:#A68D26;}
</style>
<g>
	<g>
		<path class="st0" d="M472.4,41.8l8.9,12.7c-36.2,27.2-76.4,69.2-120.7,125.8C316.2,236.9,282.4,289.8,259,339l-18.8,12.7
			c-15.6,10.8-26.1,18.9-31.7,24.1c-2.2-7.9-7-21-14.5-39.1l-7.1-16.5c-10.1-23.7-19.6-41.2-28.3-52.5
			c-8.7-11.3-18.5-18.9-29.3-22.6c18.3-19.3,35-28.9,50.2-28.9c13,0,27.5,17.7,43.4,53l7.9,17.8c28.6-48.2,65.3-95,110.1-140.5
			C385.8,101,429.6,66.1,472.4,41.8z"/>
	</g>
	<path class="st0" d="M416.8,188.4c8.2,20.2,12.7,42.3,12.7,65.4c0,96.6-78.3,174.9-174.9,174.9S79.6,350.4,79.6,253.8
		S157.9,78.9,254.5,78.9c24.4,0,47.7,5,68.8,14.1L365.4,56c-32.8-18.4-70.6-28.9-110.8-28.9c-125.2,0-226.7,101.5-226.7,226.7
		s101.5,226.7,226.7,226.7S481.2,379,481.2,253.8c0-36.3-8.6-70.7-23.8-101.1L416.8,188.4z"/>
</g>
</svg>
